<svg width="15" height="9" viewBox="0 0 15 9" fill="none" xmlns="http://www.w3.org/2000/svg">
<path fill-rule="evenodd" clip-rule="evenodd" d="M1.73716 0.324281C1.36397 -0.0828377 0.7314 -0.110341 0.324281 0.262852C-0.0828377 0.636044 -0.110341 1.26861 0.262852 1.67573L6.67131 8.66678C6.68366 8.68054 6.69645 8.69404 6.70968 8.70725C6.90368 8.90146 7.15976 8.99993 7.41666 9C7.56336 9.00004 7.71032 8.968 7.84614 8.90337C7.94672 8.8556 8.04076 8.7902 8.12351 8.70739C8.1368 8.69413 8.14964 8.68058 8.16204 8.66676L14.5705 1.67573C14.9437 1.26861 14.9162 0.636044 14.509 0.262852C14.1019 -0.110341 13.4694 -0.0828377 13.0962 0.324281L7.41666 6.5201L1.73716 0.324281Z" fill="#191D21"/>
</svg>
