<svg width="8" height="17" viewBox="0 0 8 17" fill="none" xmlns="http://www.w3.org/2000/svg">
<path d="M6.91895 11.8447C6.91895 11.1943 6.70801 10.6641 6.28613 10.2539C5.86426 9.83789 5.12012 9.44531 4.05371 9.07617C2.72949 8.66016 1.80078 8.16797 1.26758 7.59961C0.734375 7.02539 0.467773 6.28418 0.467773 5.37598C0.467773 4.4209 0.760742 3.64746 1.34668 3.05566C1.93262 2.45801 2.72949 2.11816 3.7373 2.03613V0.260742H4.63379V2.03613C5.66504 2.12988 6.46191 2.5166 7.02441 3.19629C7.59277 3.87598 7.87695 4.79883 7.87695 5.96484H6.83105C6.83105 5.04492 6.59082 4.31543 6.11035 3.77637C5.63574 3.23145 4.98535 2.95898 4.15918 2.95898C3.32715 2.95898 2.67676 3.17871 2.20801 3.61816C1.74512 4.05176 1.51367 4.63184 1.51367 5.3584C1.51367 6.06152 1.72754 6.6123 2.15527 7.01074C2.58301 7.40332 3.30957 7.77539 4.33496 8.12695C5.36621 8.47266 6.11328 8.80664 6.57617 9.12891C7.04492 9.44531 7.39355 9.82324 7.62207 10.2627C7.85645 10.6963 7.97363 11.2178 7.97363 11.8271C7.97363 12.7881 7.67188 13.5645 7.06836 14.1562C6.4707 14.7422 5.64746 15.0762 4.59863 15.1582V16.8281H3.71094V15.167C2.5332 15.0908 1.62207 14.7217 0.977539 14.0596C0.333008 13.3916 0.0107422 12.4805 0.0107422 11.3262H1.06543C1.06543 12.2402 1.33203 12.958 1.86523 13.4795C2.39844 13.9951 3.14258 14.2529 4.09766 14.2529C4.92969 14.2529 5.60645 14.0303 6.12793 13.585C6.65527 13.1396 6.91895 12.5596 6.91895 11.8447Z" fill="#979797"/>
</svg>
